<?xml version="1.0" encoding="UTF-8" standalone="no"?>
<svg
   xmlns:dc="http://purl.org/dc/elements/1.1/"
   xmlns:cc="http://creativecommons.org/ns#"
   xmlns:rdf="http://www.w3.org/1999/02/22-rdf-syntax-ns#"
   xmlns:svg="http://www.w3.org/2000/svg"
   xmlns="http://www.w3.org/2000/svg"
   xmlns:xlink="http://www.w3.org/1999/xlink"
   xmlns:sodipodi="http://sodipodi.sourceforge.net/DTD/sodipodi-0.dtd"
   xmlns:inkscape="http://www.inkscape.org/namespaces/inkscape"
   version="1.1"
   id="Layer_1"
   x="0px"
   y="0px"
   width="80"
   height="80"
   viewBox="0 0 400 400"
   enable-background="new 0 0 595 595"
   xml:space="preserve">
<path
   d="M -2.61e-5,199.99804 C -2.61e-5,89.543052 89.546948,-2.625e-6 200.00194,-2.625e-6 310.45692,-2.625e-6 399.99998,89.543052 399.99998,199.99804 399.99998,310.45695 310.45692,400 200.00194,400 89.546948,400 -2.61e-5,310.45695 -2.61e-5,199.99804"
   id="path35" /><path
   style="fill:#ffffff"
   d="m 292.46129,235.09167 c 22.33481,-6.6048 31.76184,-23.96934 35.18771,-32.69866 2.77127,-7.32211 4.006,-15.36546 4.006,-24.58475 0,-19.94767 -6.07955,-34.3332 -19.95159,-48.78536 -13.87596,-14.45608 -32.98088,-19.76344 -52.91288,-19.76344 H 171.1368 l -0.0118,124.19767 c 0,6.31866 -2.3597,11.61034 -7.07126,15.87896 -4.71547,4.27646 -10.11298,6.40881 -16.20429,6.40881 -6.46369,0 -12.06111,-2.17939 -16.76875,-6.55776 -4.71547,-4.37446 -7.06733,-9.63478 -7.06733,-15.78096 V 108.53822 H 76.403985 v 121.70471 c 0,19.93199 7.224122,36.83792 21.676286,50.71388 14.452169,13.87988 28.974889,20.81002 48.922559,20.81002 20.13582,0 37.57092,-6.97325 52.30139,-20.91585 14.73439,-13.94651 19.42242,-30.78189 19.42242,-50.50222 v -75.53382 h 43.22322 c 6.14227,0 11.40259,2.35185 15.78097,7.06733 4.37053,4.71155 6.55776,10.30113 6.55776,16.76874 0,6.08739 -2.13627,11.48883 -6.40881,16.2043 -4.20591,4.64492 -9.41919,6.98894 -15.62418,7.05949 h -33.60804 l 41.48285,99.59725 h 50.49438 l -28.1635,-66.42038"
   id="path37" />
</svg>